<?xml version="1.0" encoding="utf-8"?>
<!-- Generator: Adobe Illustrator 26.5.0, SVG Export Plug-In . SVG Version: 6.00 Build 0)  -->
<svg version="1.1" id="Camada_1" xmlns="http://www.w3.org/2000/svg" xmlns:xlink="http://www.w3.org/1999/xlink" x="0px" y="0px"
	 viewBox="0 0 500 249.4" style="enable-background:new 0 0 500 249.4;" xml:space="preserve">
<style type="text/css">
	.st0{fill:url(#SVGID_1_);}
	.st1{fill:url(#SVGID_00000065074984572560241030000002741211358388286365_);}
	.st2{fill:url(#SVGID_00000092442829704186692260000004322921888316140441_);}
	.st3{fill:url(#SVGID_00000009585424465789246850000008009301639367156123_);}
	.st4{fill:#5E5F5F;}
	.st5{fill:url(#SVGID_00000049924969749897008300000004293455873170388887_);}
	.st6{fill:url(#SVGID_00000128485126425423787590000008979308519390557609_);}
	.st7{fill:url(#SVGID_00000147919496634223063980000006459325984578384780_);}
	.st8{fill:#616160;}
	.st9{fill:url(#SVGID_00000178173508860927280220000015481748755525692302_);}
</style>
<g>
	<linearGradient id="SVGID_1_" gradientUnits="userSpaceOnUse" x1="378.9449" y1="60.5212" x2="505.4299" y2="60.5212">
		<stop  offset="0" style="stop-color:#991919"/>
		<stop  offset="1" style="stop-color:#D91721"/>
	</linearGradient>
	<path class="st0" d="M378.9,1.4c15.7-2.9,32.3-1.1,47.8,4.2c15.5,5.3,29.9,14.4,41.6,26.1c11.7,11.7,20.8,26.1,26.1,41.6
		c5.3,15.5,7,32.2,4.1,47.9c-0.4-2-0.8-3.9-1.2-5.8l-1.3-5.7l-1.5-5.6c-0.5-1.9-1.1-3.7-1.6-5.5c-2.3-7.3-5.1-14.3-8.5-21
		c-6.7-13.4-15.4-25.6-25.8-36.1c-10.5-10.5-22.6-19.2-36.1-25.8C416,12,409,9.2,401.6,6.9c-1.8-0.5-3.7-1.1-5.5-1.6l-5.6-1.5
		l-5.7-1.3C382.8,2.2,380.9,1.8,378.9,1.4z"/>
	
		<linearGradient id="SVGID_00000076568224765079634410000002331194093346098350_" gradientUnits="userSpaceOnUse" x1="-5.4299" y1="184.5143" x2="121.0551" y2="184.5143">
		<stop  offset="0" style="stop-color:#1166A6"/>
		<stop  offset="1" style="stop-color:#1380B8"/>
	</linearGradient>
	<path style="fill:url(#SVGID_00000076568224765079634410000002331194093346098350_);" d="M121.1,243.7c-15.7,2.9-32.3,1.1-47.8-4.2
		c-15.5-5.3-29.9-14.4-41.6-26.1c-11.7-11.7-20.8-26.1-26.1-41.6c-5.3-15.5-7-32.2-4.1-47.9c0.4,2,0.8,3.9,1.2,5.8l1.3,5.7l1.5,5.6
		c0.5,1.9,1.1,3.7,1.6,5.5c2.3,7.3,5.1,14.3,8.5,21c6.7,13.4,15.4,25.6,25.8,36.1c10.5,10.5,22.6,19.2,36.1,25.8
		c6.7,3.4,13.8,6.2,21.1,8.5c1.8,0.5,3.7,1.1,5.5,1.6l5.6,1.5l5.7,1.3C117.2,242.9,119.1,243.2,121.1,243.7z"/>
	
		<linearGradient id="SVGID_00000061454336801624699470000015725576514494005391_" gradientUnits="userSpaceOnUse" x1="197.8768" y1="217.9978" x2="301.8026" y2="141.4968">
		<stop  offset="0" style="stop-color:#741517"/>
		<stop  offset="1" style="stop-color:#BA181A"/>
	</linearGradient>
	<path style="fill:url(#SVGID_00000061454336801624699470000015725576514494005391_);" d="M268.8,131.7v7h33.9
		c-5,10.7-13.5,16-25.3,16c-10,0-17.6-2.7-22.8-8.2c-0.1-0.1-0.2-0.2-0.3-0.4l-22.9,22.9c3.1,2.9,6.6,5.4,10.5,7.5
		c9.3,5.2,20.1,7.8,32.2,7.8c10,0,18.9-1.8,26.6-5.4c7.8-3.6,14.2-8.2,19.3-13.8c5.1-5.6,9-11.6,11.6-18.1v-32.7H286L268.8,131.7z"
		/>
	
		<linearGradient id="SVGID_00000093157505486320656930000005085281261037080203_" gradientUnits="userSpaceOnUse" x1="239.9399" y1="82.7028" x2="268.0865" y2="116.2622">
		<stop  offset="0" style="stop-color:#1166A6"/>
		<stop  offset="1" style="stop-color:#1380B8"/>
	</linearGradient>
	<path style="fill:url(#SVGID_00000093157505486320656930000005085281261037080203_);" d="M226.1,163.5l23.9-23.9
		c-2.1-4.6-3.1-10.2-3.1-16.8c0-9.3,2.4-16.7,7.3-22.2c4.9-5.5,11.5-8.3,20-8.3c4.6,0,8.6,0.9,11.9,2.6c1.9,1,3.5,2.1,5,3.6
		l23.8-23.8c-1-0.8-2-1.7-3.1-2.4c-10-7.3-22.6-11-37.8-11c-12.2,0-22.9,2.6-32.1,7.8c-9.3,5.2-16.5,12.5-21.6,21.8
		c-5.1,9.3-7.7,20-7.7,31.9c0,12,2.5,22.7,7.7,32.1C222,158,223.9,160.8,226.1,163.5z"/>
	<polygon class="st4" points="268.8,120.7 275,114.5 268.8,114.5 	"/>
	
		<linearGradient id="SVGID_00000088814898660516749310000003898321553340890033_" gradientUnits="userSpaceOnUse" x1="113.5708" y1="214.1742" x2="201.2623" y2="126.4826">
		<stop  offset="0" style="stop-color:#991919"/>
		<stop  offset="1" style="stop-color:#D91721"/>
	</linearGradient>
	<polygon style="fill:url(#SVGID_00000088814898660516749310000003898321553340890033_);" points="147.1,120.6 152.8,137.7 
		130,137.7 83.9,183.8 111.2,183.8 117.8,163.8 161.3,163.8 167.9,183.8 203.9,183.8 172,95.8 	"/>
	
		<linearGradient id="SVGID_00000129172558112172289500000006335110777607110060_" gradientUnits="userSpaceOnUse" x1="356.4074" y1="84.5019" x2="389.9668" y2="133.2171">
		<stop  offset="0" style="stop-color:#1166A6"/>
		<stop  offset="1" style="stop-color:#1380B8"/>
	</linearGradient>
	<polygon style="fill:url(#SVGID_00000129172558112172289500000006335110777607110060_);" points="393.3,126.3 402.6,98.1 
		407.3,112.3 432,87.6 422.4,61.2 383.1,61.2 339.9,179.7 	"/>
	
		<linearGradient id="SVGID_00000091715494010482505050000014838247634342120078_" gradientUnits="userSpaceOnUse" x1="376.793" y1="213.9969" x2="463.9425" y2="126.8474">
		<stop  offset="0" style="stop-color:#991919"/>
		<stop  offset="1" style="stop-color:#D91721"/>
	</linearGradient>
	<polygon style="fill:url(#SVGID_00000091715494010482505050000014838247634342120078_);" points="410.1,120.7 415.8,137.7 
		393,137.7 347,183.8 374.3,183.8 380.9,163.8 424.4,163.8 431,183.8 467,183.8 435,95.8 	"/>
	<g>
		<path class="st8" d="M141,243.3h-3.9l-0.6,1.8h-3.2l4-11h3.5l4,11h-3.2L141,243.3z M140.3,241l-1.2-3.5l-1.2,3.5H140.3z"/>
		<path class="st8" d="M158.6,234.2v11h-3v-6.1l-2.1,6.1H151l-2.1-6.1v6.1h-3v-11h3.7l2.8,7.1l2.7-7.1H158.6z"/>
		<path class="st8" d="M163.4,236.6v1.8h3.5v2.3h-3.5v2h4v2.4h-7v-11h7v2.4H163.4z"/>
		<path class="st8" d="M174.5,245.1l-2.2-4H172v4h-3v-11h4.8c0.9,0,1.6,0.2,2.2,0.5c0.6,0.3,1.1,0.7,1.4,1.3
			c0.3,0.5,0.5,1.1,0.5,1.8c0,0.7-0.2,1.4-0.6,2s-1,1-1.8,1.2l2.5,4.3H174.5z M172,239h1.5c0.4,0,0.7-0.1,0.9-0.3
			c0.2-0.2,0.3-0.5,0.3-0.9c0-0.4-0.1-0.6-0.3-0.8s-0.5-0.3-0.9-0.3H172V239z"/>
		<path class="st8" d="M182.2,234.2v11h-3v-11H182.2z"/>
		<path class="st8" d="M184.3,236.7c0.5-0.8,1.1-1.5,1.9-2s1.8-0.7,2.9-0.7c1.4,0,2.5,0.4,3.5,1.1c0.9,0.7,1.5,1.7,1.8,3H191
			c-0.2-0.4-0.5-0.7-0.8-0.9c-0.3-0.2-0.7-0.3-1.2-0.3c-0.7,0-1.3,0.3-1.7,0.8s-0.6,1.2-0.6,2c0,0.9,0.2,1.5,0.6,2s1,0.8,1.7,0.8
			c0.5,0,0.9-0.1,1.2-0.3c0.3-0.2,0.6-0.5,0.8-0.9h3.3c-0.3,1.3-0.9,2.2-1.8,3c-0.9,0.7-2.1,1.1-3.5,1.1c-1.1,0-2-0.2-2.9-0.7
			s-1.5-1.1-1.9-2c-0.5-0.8-0.7-1.8-0.7-2.9C183.6,238.5,183.8,237.6,184.3,236.7z"/>
		<path class="st8" d="M202.7,243.3h-3.9l-0.6,1.8H195l4-11h3.5l4,11h-3.2L202.7,243.3z M201.9,241l-1.2-3.5l-1.2,3.5H201.9z"/>
		<path class="st8" d="M217.7,245.1h-3l-4.1-6.1v6.1h-3v-11h3l4.1,6.2v-6.2h3V245.1z"/>
		<path class="st8" d="M229.4,237.8c-0.2-0.3-0.4-0.5-0.7-0.7c-0.3-0.2-0.7-0.2-1.1-0.2c-0.8,0-1.4,0.2-1.8,0.7
			c-0.4,0.5-0.7,1.2-0.7,2c0,0.9,0.2,1.7,0.7,2.2c0.5,0.5,1.2,0.7,2.1,0.7c1.1,0,1.8-0.5,2.3-1.4h-3.1v-2.2h5.7v3
			c-0.2,0.6-0.6,1.1-1,1.6s-1,0.9-1.8,1.3c-0.7,0.3-1.5,0.5-2.4,0.5c-1.1,0-2.1-0.2-2.9-0.7s-1.5-1.1-2-2c-0.5-0.8-0.7-1.8-0.7-2.9
			c0-1.1,0.2-2,0.7-2.9c0.5-0.8,1.1-1.5,2-2c0.8-0.5,1.8-0.7,2.9-0.7c1.4,0,2.5,0.3,3.4,1c0.9,0.7,1.5,1.6,1.7,2.7H229.4z"/>
		<path class="st8" d="M237.2,236.6v1.8h3.5v2.3h-3.5v2h4v2.4h-7v-11h7v2.4H237.2z"/>
		<path class="st8" d="M243.7,244.3c-0.8-0.6-1.3-1.5-1.3-2.6h3.3c0,0.4,0.1,0.7,0.3,0.8c0.2,0.2,0.5,0.3,0.8,0.3
			c0.3,0,0.5-0.1,0.7-0.2c0.2-0.1,0.3-0.3,0.3-0.6c0-0.3-0.2-0.6-0.5-0.7c-0.3-0.2-0.8-0.4-1.5-0.6c-0.7-0.2-1.3-0.5-1.7-0.7
			c-0.4-0.2-0.8-0.5-1.2-1c-0.3-0.4-0.5-1-0.5-1.7c0-0.7,0.2-1.3,0.5-1.8s0.8-0.9,1.5-1.1c0.6-0.3,1.3-0.4,2.1-0.4
			c1.3,0,2.3,0.3,3.1,0.9c0.8,0.6,1.2,1.4,1.2,2.5h-3.3c0-0.3-0.1-0.6-0.3-0.7c-0.2-0.2-0.4-0.2-0.7-0.2c-0.2,0-0.4,0.1-0.6,0.2
			s-0.2,0.3-0.2,0.6c0,0.2,0.1,0.4,0.2,0.5c0.2,0.2,0.4,0.3,0.6,0.4s0.6,0.2,1.1,0.4c0.7,0.2,1.3,0.5,1.7,0.7s0.8,0.6,1.2,1
			c0.3,0.4,0.5,1,0.5,1.6c0,0.7-0.2,1.2-0.5,1.8c-0.3,0.5-0.8,0.9-1.4,1.2s-1.3,0.5-2.2,0.5C245.5,245.2,244.5,244.9,243.7,244.3z"
			/>
		<path class="st8" d="M260.6,234.2v2.4h-2.9v8.5h-3v-8.5h-2.9v-2.4H260.6z"/>
		<path class="st8" d="M268.7,243.3h-3.9l-0.6,1.8H261l4-11h3.5l4,11h-3.2L268.7,243.3z M265.7,230.9c0.2,0,0.5,0,0.6,0.1
			c0.2,0.1,0.4,0.2,0.7,0.3c0.2,0.1,0.3,0.2,0.5,0.2s0.2,0.1,0.4,0.1c0.4,0,0.6-0.2,0.7-0.7h1.5c-0.1,0.9-0.4,1.5-0.8,1.9
			c-0.4,0.4-0.9,0.6-1.5,0.6c-0.2,0-0.4,0-0.6-0.1c-0.2-0.1-0.4-0.2-0.7-0.3c-0.2-0.1-0.3-0.2-0.5-0.2c-0.1-0.1-0.2-0.1-0.4-0.1
			c-0.4,0-0.6,0.2-0.7,0.7h-1.5C263.6,231.8,264.4,230.9,265.7,230.9z M267.9,241l-1.2-3.5l-1.2,3.5H267.9z"/>
		<path class="st8" d="M275.9,244.5c-0.9-0.5-1.5-1.2-2-2s-0.8-1.8-0.8-2.9s0.3-2,0.8-2.9s1.2-1.5,2-2c0.9-0.5,1.8-0.7,2.8-0.7
			c1,0,2,0.2,2.8,0.7s1.5,1.1,2,2c0.5,0.9,0.7,1.8,0.7,2.9s-0.2,2-0.7,2.9c-0.5,0.9-1.2,1.5-2,2c-0.9,0.5-1.8,0.7-2.8,0.7
			S276.8,245,275.9,244.5z M280.6,241.6c0.5-0.5,0.7-1.2,0.7-2c0-0.9-0.2-1.6-0.7-2.1c-0.5-0.5-1.1-0.8-1.8-0.8
			c-0.8,0-1.4,0.3-1.9,0.8c-0.4,0.5-0.7,1.2-0.7,2.1c0,0.9,0.2,1.5,0.7,2c0.4,0.5,1.1,0.8,1.9,0.8
			C279.5,242.4,280.1,242.1,280.6,241.6z"/>
		<path class="st8" d="M296,234.8c0.9,0.5,1.5,1.1,2,1.9c0.5,0.8,0.7,1.8,0.7,2.8c0,1.1-0.2,2-0.7,2.8c-0.5,0.8-1.1,1.5-2,2
			c-0.9,0.5-1.9,0.7-3,0.7h-4.3v-11h4.3C294.2,234.2,295.2,234.4,296,234.8z M294.9,241.7c0.5-0.5,0.8-1.2,0.8-2.1
			c0-0.9-0.3-1.6-0.8-2.1c-0.5-0.5-1.2-0.7-2.1-0.7h-1.1v5.6h1.1C293.7,242.4,294.4,242.2,294.9,241.7z"/>
		<path class="st8" d="M303.2,236.6v1.8h3.5v2.3h-3.5v2h4v2.4h-7v-11h7v2.4H303.2z"/>
		<path class="st8" d="M318.5,243.3h-3.9l-0.6,1.8h-3.2l4-11h3.5l4,11h-3.2L318.5,243.3z M317.8,241l-1.2-3.5l-1.2,3.5H317.8z"/>
		<path class="st8" d="M331.6,234.2v2.4h-2.9v8.5h-3v-8.5h-2.9v-2.4H331.6z"/>
		<path class="st8" d="M335.8,234.2v11h-3v-11H335.8z"/>
		<path class="st8" d="M348.2,234.2l-3.8,11h-3.9l-3.8-11h3.3l2.5,7.9l2.5-7.9H348.2z"/>
		<path class="st8" d="M351.6,244.5c-0.9-0.5-1.5-1.2-2-2s-0.8-1.8-0.8-2.9s0.3-2,0.8-2.9s1.2-1.5,2-2c0.9-0.5,1.8-0.7,2.8-0.7
			c1,0,2,0.2,2.8,0.7s1.5,1.1,2,2c0.5,0.9,0.7,1.8,0.7,2.9s-0.2,2-0.7,2.9c-0.5,0.9-1.2,1.5-2,2c-0.9,0.5-1.8,0.7-2.8,0.7
			S352.4,245,351.6,244.5z M356.2,241.6c0.5-0.5,0.7-1.2,0.7-2c0-0.9-0.2-1.6-0.7-2.1c-0.5-0.5-1.1-0.8-1.8-0.8
			c-0.8,0-1.4,0.3-1.9,0.8c-0.4,0.5-0.7,1.2-0.7,2.1c0,0.9,0.2,1.5,0.7,2c0.4,0.5,1.1,0.8,1.9,0.8
			C355.2,242.4,355.8,242.1,356.2,241.6z"/>
		<path class="st8" d="M362.4,244.3c-0.8-0.6-1.3-1.5-1.3-2.6h3.3c0,0.4,0.1,0.7,0.3,0.8c0.2,0.2,0.5,0.3,0.8,0.3
			c0.3,0,0.5-0.1,0.7-0.2c0.2-0.1,0.3-0.3,0.3-0.6c0-0.3-0.2-0.6-0.5-0.7c-0.3-0.2-0.8-0.4-1.5-0.6c-0.7-0.2-1.3-0.5-1.7-0.7
			c-0.4-0.2-0.8-0.5-1.2-1c-0.3-0.4-0.5-1-0.5-1.7c0-0.7,0.2-1.3,0.5-1.8s0.8-0.9,1.5-1.1c0.6-0.3,1.3-0.4,2.1-0.4
			c1.3,0,2.3,0.3,3.1,0.9c0.8,0.6,1.2,1.4,1.2,2.5h-3.3c0-0.3-0.1-0.6-0.3-0.7c-0.2-0.2-0.4-0.2-0.7-0.2c-0.2,0-0.4,0.1-0.6,0.2
			s-0.2,0.3-0.2,0.6c0,0.2,0.1,0.4,0.2,0.5c0.2,0.2,0.4,0.3,0.6,0.4s0.6,0.2,1.1,0.4c0.7,0.2,1.3,0.5,1.7,0.7s0.8,0.6,1.2,1
			c0.3,0.4,0.5,1,0.5,1.6c0,0.7-0.2,1.2-0.5,1.8c-0.3,0.5-0.8,0.9-1.4,1.2s-1.3,0.5-2.2,0.5C364.2,245.2,363.2,244.9,362.4,244.3z"
			/>
		<path class="st8" d="M377,236.6v1.8h3.5v2.3H377v2h4v2.4h-7v-11h7v2.4H377z"/>
		<path class="st8" d="M392.9,234.8c0.9,0.5,1.5,1.1,2,1.9c0.5,0.8,0.7,1.8,0.7,2.8c0,1.1-0.2,2-0.7,2.8c-0.5,0.8-1.1,1.5-2,2
			c-0.9,0.5-1.9,0.7-3,0.7h-4.3v-11h4.3C391,234.2,392,234.4,392.9,234.8z M391.7,241.7c0.5-0.5,0.8-1.2,0.8-2.1
			c0-0.9-0.3-1.6-0.8-2.1c-0.5-0.5-1.2-0.7-2.1-0.7h-1.1v5.6h1.1C390.5,242.4,391.2,242.2,391.7,241.7z"/>
		<path class="st8" d="M400,234.2v11h-3v-11H400z"/>
		<path class="st8" d="M402.7,244.3c-0.8-0.6-1.3-1.5-1.3-2.6h3.3c0,0.4,0.1,0.7,0.3,0.8c0.2,0.2,0.5,0.3,0.8,0.3
			c0.3,0,0.5-0.1,0.7-0.2c0.2-0.1,0.3-0.3,0.3-0.6c0-0.3-0.2-0.6-0.5-0.7c-0.3-0.2-0.8-0.4-1.5-0.6c-0.7-0.2-1.3-0.5-1.7-0.7
			c-0.4-0.2-0.8-0.5-1.2-1c-0.3-0.4-0.5-1-0.5-1.7c0-0.7,0.2-1.3,0.5-1.8s0.8-0.9,1.5-1.1c0.6-0.3,1.3-0.4,2.1-0.4
			c1.3,0,2.3,0.3,3.1,0.9c0.8,0.6,1.2,1.4,1.2,2.5h-3.3c0-0.3-0.1-0.6-0.3-0.7c-0.2-0.2-0.4-0.2-0.7-0.2c-0.2,0-0.4,0.1-0.6,0.2
			s-0.2,0.3-0.2,0.6c0,0.2,0.1,0.4,0.2,0.5c0.2,0.2,0.4,0.3,0.6,0.4s0.6,0.2,1.1,0.4c0.7,0.2,1.3,0.5,1.7,0.7s0.8,0.6,1.2,1
			c0.3,0.4,0.5,1,0.5,1.6c0,0.7-0.2,1.2-0.5,1.8c-0.3,0.5-0.8,0.9-1.4,1.2s-1.3,0.5-2.2,0.5C404.6,245.2,403.5,244.9,402.7,244.3z"
			/>
		<path class="st8" d="M419.6,234.2v2.4h-2.9v8.5h-3v-8.5h-2.9v-2.4H419.6z"/>
		<path class="st8" d="M426.3,245.1l-2.2-4h-0.3v4h-3v-11h4.8c0.9,0,1.6,0.2,2.2,0.5c0.6,0.3,1.1,0.7,1.4,1.3
			c0.3,0.5,0.5,1.1,0.5,1.8c0,0.7-0.2,1.4-0.6,2c-0.4,0.6-1,1-1.8,1.2l2.5,4.3H426.3z M423.8,239h1.5c0.4,0,0.7-0.1,0.9-0.3
			c0.2-0.2,0.3-0.5,0.3-0.9c0-0.4-0.1-0.6-0.3-0.8s-0.5-0.3-0.9-0.3h-1.5V239z"/>
		<path class="st8" d="M434.1,234.2v11h-3v-11H434.1z"/>
		<path class="st8" d="M444.4,240.4c0.4,0.5,0.6,1.1,0.6,1.7c0,0.9-0.3,1.7-1,2.2c-0.6,0.5-1.5,0.8-2.7,0.8h-5.4v-11h5.3
			c1.1,0,2,0.2,2.6,0.7s1,1.2,1,2.1c0,0.6-0.2,1.2-0.5,1.6c-0.3,0.4-0.8,0.7-1.3,0.9C443.5,239.6,444,240,444.4,240.4z M438.9,238.5
			h1.5c0.8,0,1.2-0.3,1.2-0.9c0-0.7-0.4-1-1.2-1h-1.5V238.5z M441.8,241.7c0-0.3-0.1-0.6-0.3-0.8c-0.2-0.2-0.5-0.3-0.9-0.3h-1.8v2
			h1.8C441.4,242.7,441.8,242.3,441.8,241.7z"/>
		<path class="st8" d="M449.2,234.2v6.4c0,0.6,0.1,1,0.4,1.4c0.3,0.3,0.7,0.5,1.3,0.5s1-0.2,1.3-0.5c0.3-0.3,0.4-0.8,0.4-1.4v-6.4h3
			v6.4c0,1-0.2,1.9-0.6,2.6c-0.4,0.7-1,1.2-1.7,1.6c-0.7,0.4-1.5,0.5-2.4,0.5s-1.7-0.2-2.4-0.5c-0.7-0.4-1.2-0.9-1.6-1.6
			s-0.6-1.6-0.6-2.6v-6.4H449.2z"/>
		<path class="st8" d="M460.4,234.2v11h-3v-11H460.4z"/>
		<path class="st8" d="M468.4,242.1c0.3-0.2,0.6-0.5,0.8-0.9h3.3c-0.2,1.1-0.7,2-1.5,2.7s-1.7,1.1-2.8,1.3v0.6c0.5,0,1,0.2,1.4,0.5
			s0.6,0.8,0.6,1.4c0,0.6-0.2,1.1-0.7,1.4s-1,0.5-1.6,0.5h-2.5v-1.6h2.2c0.3,0,0.5-0.1,0.5-0.3s-0.2-0.3-0.5-0.3h-1.2v-2
			c-0.9-0.1-1.7-0.4-2.4-0.9c-0.7-0.5-1.2-1.1-1.6-1.9c-0.4-0.8-0.6-1.7-0.6-2.7c0-1.1,0.2-2,0.7-2.9c0.5-0.8,1.1-1.5,1.9-2
			c0.8-0.5,1.8-0.7,2.9-0.7c1.4,0,2.5,0.4,3.5,1.1c0.9,0.7,1.5,1.7,1.8,3h-3.3c-0.2-0.4-0.5-0.7-0.8-0.9c-0.3-0.2-0.8-0.3-1.2-0.3
			c-0.7,0-1.3,0.3-1.7,0.8s-0.6,1.2-0.6,2c0,0.9,0.2,1.5,0.6,2s1,0.8,1.7,0.8C467.6,242.4,468,242.3,468.4,242.1z"/>
		<path class="st8" d="M480.9,243.3H477l-0.6,1.8h-3.2l4-11h3.5l4,11h-3.2L480.9,243.3z M477.9,230.9c0.2,0,0.5,0,0.6,0.1
			c0.2,0.1,0.4,0.2,0.7,0.3c0.2,0.1,0.3,0.2,0.5,0.2s0.2,0.1,0.4,0.1c0.4,0,0.6-0.2,0.7-0.7h1.5c-0.1,0.9-0.4,1.5-0.8,1.9
			c-0.4,0.4-0.9,0.6-1.5,0.6c-0.2,0-0.4,0-0.6-0.1c-0.2-0.1-0.4-0.2-0.7-0.3c-0.2-0.1-0.3-0.2-0.5-0.2c-0.1-0.1-0.2-0.1-0.4-0.1
			c-0.4,0-0.6,0.2-0.7,0.7h-1.5C475.8,231.8,476.6,230.9,477.9,230.9z M480.1,241l-1.2-3.5l-1.2,3.5H480.1z"/>
		<path class="st8" d="M488.1,244.5c-0.9-0.5-1.5-1.2-2-2s-0.8-1.8-0.8-2.9s0.3-2,0.8-2.9s1.2-1.5,2-2c0.9-0.5,1.8-0.7,2.8-0.7
			c1,0,2,0.2,2.8,0.7s1.5,1.1,2,2c0.5,0.9,0.7,1.8,0.7,2.9s-0.2,2-0.7,2.9c-0.5,0.9-1.2,1.5-2,2c-0.9,0.5-1.8,0.7-2.8,0.7
			S488.9,245,488.1,244.5z M492.8,241.6c0.5-0.5,0.7-1.2,0.7-2c0-0.9-0.2-1.6-0.7-2.1c-0.5-0.5-1.1-0.8-1.8-0.8
			c-0.8,0-1.4,0.3-1.9,0.8c-0.4,0.5-0.7,1.2-0.7,2.1c0,0.9,0.2,1.5,0.7,2c0.4,0.5,1.1,0.8,1.9,0.8
			C491.7,242.4,492.3,242.1,492.8,241.6z"/>
	</g>
	
		<linearGradient id="SVGID_00000122698030971127747040000017009460109609782415_" gradientUnits="userSpaceOnUse" x1="90.5345" y1="77.0034" x2="130.5892" y2="139.7919">
		<stop  offset="0" style="stop-color:#1166A6"/>
		<stop  offset="1" style="stop-color:#1380B8"/>
	</linearGradient>
	<polygon style="fill:url(#SVGID_00000122698030971127747040000017009460109609782415_);" points="130.4,126.3 139.7,98.1 
		144.4,112.3 169.1,87.6 159.5,61.2 120.2,61.2 77,179.7 	"/>
</g>
</svg>
