<svg version="1.2" xmlns="http://www.w3.org/2000/svg" viewBox="0 0 500 250" width="500" height="250">
	<title>logo-site-svg</title>
	<defs>
		<linearGradient id="g1" x2="1" gradientUnits="userSpaceOnUse" gradientTransform="matrix(522.448,0,0,260.883,.282,124.626)">
			<stop offset="0" stop-color="#000000"/>
			<stop offset="1" stop-color="#000000"/>
		</linearGradient>
	</defs>
	<style>
		.s0 { opacity: .2;fill: url(#g1) } 
	</style>
	<path id="Layer" fill-rule="evenodd" class="s0" d="m378.9 1.4c15.7-2.9 32.3-1.1 47.8 4.2 15.5 5.3 29.9 14.4 41.6 26.1 11.7 11.7 20.8 26.1 26.1 41.6 5.3 15.5 7 32.2 4.1 47.9-0.4-2-0.8-3.9-1.2-5.8l-1.3-5.7-1.5-5.6c-0.5-1.9-1.1-3.7-1.6-5.5-2.3-7.3-5.1-14.3-8.5-21-6.7-13.4-15.4-25.6-25.8-36.1-10.5-10.5-22.6-19.2-36.1-25.8-6.5-3.7-13.5-6.5-20.9-8.8-1.8-0.5-3.7-1.1-5.5-1.6l-5.6-1.5-5.7-1.3c-2-0.3-3.9-0.7-5.9-1.1zm-257.8 242.3c-15.7 2.9-32.3 1.1-47.8-4.2-15.5-5.3-29.9-14.4-41.6-26.1-11.7-11.7-20.8-26.1-26.1-41.6-5.3-15.5-7-32.2-4.1-47.9 0.4 2 0.8 3.9 1.2 5.8l1.3 5.7 1.5 5.6c0.5 1.9 1.1 3.7 1.6 5.5 2.3 7.3 5.1 14.3 8.5 21 6.7 13.4 15.4 25.6 25.8 36.1 10.5 10.5 22.6 19.2 36.1 25.8 6.7 3.4 13.8 6.2 21.1 8.5 1.8 0.5 3.7 1.1 5.5 1.6l5.6 1.5 5.7 1.3c1.8 0.6 3.7 0.9 5.7 1.4zm164.9-129.4h45.6v32.7c-2.6 6.5-6.5 12.5-11.6 18.1-5.1 5.6-11.5 10.2-19.3 13.8-7.7 3.6-16.6 5.4-26.6 5.4-12.1 0-22.9-2.6-32.2-7.8q-5.8-3.2-10.5-7.5l22.9-22.9c0.1 0.2 0.2 0.3 0.3 0.4 5.2 5.5 12.8 8.2 22.8 8.2 11.8 0 20.3-5.3 25.3-16h-33.9v-7zm-65.7 40.6c-5.2-9.4-7.7-20.1-7.7-32.1 0-11.9 2.6-22.6 7.7-31.9 5.1-9.3 12.3-16.6 21.6-21.8q13.8-7.8 32.1-7.8c15.2 0 27.8 3.7 37.8 11 1.1 0.7 2.1 1.6 3.1 2.4l-23.8 23.8c-1.5-1.5-3.1-2.6-5-3.6-3.3-1.7-7.3-2.6-11.9-2.6-8.5 0-15.1 2.8-20 8.3-4.9 5.5-7.3 12.9-7.3 22.2 0 6.6 1 12.2 3.1 16.8l-23.9 23.9c-2.2-2.7-4.1-5.5-5.8-8.6zm48.5-40.4h6.2l-6.2 6.2zm-96.8-18.7l31.9 88h-36l-6.6-20h-43.5l-6.6 20h-27.3l46.1-46.1h22.8l-5.7-17.1zm167.9 83.9l43.2-118.5h39.3l9.6 26.4-24.7 24.7-4.7-14.2-9.3 28.2zm95.1-83.9l32 88h-36l-6.6-20h-43.5l-6.6 20h-27.3l46-46.1h22.8l-5.7-17zm-294 147.5h-3.9l-0.6 1.8h-3.2l4-11h3.5l4 11h-3.2zm-0.7-2.3l-1.2-3.5-1.2 3.5zm18.3-6.8v11h-3v-6.1l-2.1 6.1h-2.5l-2.1-6.1v6.1h-3v-11h3.7l2.8 7.1 2.7-7.1zm4.8 4.2h3.5v2.3h-3.5v2h4v2.4h-7v-11h7v2.4h-4zm11.1 6.7l-2.2-4h-0.3v4h-3v-11h4.8c0.9 0 1.6 0.2 2.2 0.5 0.6 0.3 1.1 0.7 1.4 1.3 0.3 0.5 0.5 1.1 0.5 1.8 0 0.7-0.2 1.4-0.6 2q-0.6 0.9-1.8 1.2l2.5 4.3h-3.5zm-2.5-6.1h1.5q0.6 0 0.9-0.3 0.3-0.3 0.3-0.9c0-0.4-0.1-0.6-0.3-0.8q-0.3-0.3-0.9-0.3h-1.5zm10.2-4.8v11h-3v-11zm2.1 2.5c0.5-0.8 1.1-1.5 1.9-2 0.8-0.5 1.8-0.7 2.9-0.7 1.4 0 2.5 0.4 3.5 1.1q1.4 1 1.8 3h-3.4c-0.2-0.4-0.5-0.7-0.8-0.9q-0.4-0.3-1.2-0.3c-0.7 0-1.3 0.3-1.7 0.8-0.4 0.5-0.6 1.2-0.6 2 0 0.9 0.2 1.5 0.6 2 0.4 0.5 1 0.8 1.7 0.8q0.8 0 1.2-0.3c0.3-0.2 0.6-0.5 0.8-0.9h3.3c-0.3 1.3-0.9 2.2-1.8 3-0.9 0.7-2.1 1.1-3.5 1.1-1.1 0-2-0.2-2.9-0.7-0.9-0.5-1.5-1.1-1.9-2-0.5-0.8-0.7-1.8-0.7-2.9 0.1-1.3 0.3-2.2 0.8-3.1zm18.4 6.6h-3.9l-0.6 1.8h-3.2l4-11h3.5l4 11h-3.2zm-0.8-2.3l-1.2-3.5-1.2 3.5zm15.8 4.1h-3l-4.1-6.1v6.1h-3v-11h3l4.1 6.2v-6.2h3zm11.7-7.3c-0.2-0.3-0.4-0.5-0.7-0.7-0.3-0.2-0.7-0.2-1.1-0.2-0.8 0-1.4 0.2-1.8 0.7-0.4 0.5-0.7 1.2-0.7 2 0 0.9 0.2 1.7 0.7 2.2 0.5 0.5 1.2 0.7 2.1 0.7 1.1 0 1.8-0.5 2.3-1.4h-3.1v-2.2h5.7v3c-0.2 0.6-0.6 1.1-1 1.6-0.4 0.5-1 0.9-1.8 1.3-0.7 0.3-1.5 0.5-2.4 0.5-1.1 0-2.1-0.2-2.9-0.7-0.8-0.5-1.5-1.1-2-2-0.5-0.8-0.7-1.8-0.7-2.9 0-1.1 0.2-2 0.7-2.9 0.5-0.8 1.1-1.5 2-2 0.8-0.5 1.8-0.7 2.9-0.7 1.4 0 2.5 0.3 3.4 1 0.9 0.7 1.5 1.6 1.7 2.7zm7.8 0.6h3.5v2.3h-3.5v2h4v2.4h-7v-11h7v2.4h-4zm6.5 5.9c-0.8-0.6-1.3-1.5-1.3-2.6h3.3c0 0.4 0.1 0.7 0.3 0.8 0.2 0.2 0.5 0.3 0.8 0.3 0.3 0 0.5-0.1 0.7-0.2q0.3-0.1 0.3-0.6c0-0.3-0.2-0.6-0.5-0.7q-0.4-0.3-1.5-0.6c-0.7-0.2-1.3-0.5-1.7-0.7-0.4-0.2-0.8-0.5-1.2-1-0.3-0.4-0.5-1-0.5-1.7 0-0.7 0.2-1.3 0.5-1.8 0.3-0.5 0.8-0.9 1.5-1.1 0.6-0.3 1.3-0.4 2.1-0.4 1.3 0 2.3 0.3 3.1 0.9 0.8 0.6 1.2 1.4 1.2 2.5h-3.3c0-0.3-0.1-0.6-0.3-0.7-0.2-0.2-0.4-0.2-0.7-0.2-0.2 0-0.4 0.1-0.6 0.2-0.2 0.1-0.2 0.3-0.2 0.6 0 0.2 0.1 0.4 0.2 0.5 0.2 0.2 0.4 0.3 0.6 0.4 0.2 0.1 0.6 0.2 1.1 0.4 0.7 0.2 1.3 0.5 1.7 0.7 0.4 0.2 0.8 0.6 1.2 1 0.3 0.4 0.5 1 0.5 1.6 0 0.7-0.2 1.2-0.5 1.8-0.3 0.5-0.8 0.9-1.4 1.2-0.6 0.3-1.3 0.5-2.2 0.5-1.4-0.2-2.4-0.5-3.2-1.1zm16.9-10.1v2.4h-2.9v8.5h-3v-8.5h-2.9v-2.4zm8.1 9.1h-3.9l-0.6 1.8h-3.2l4-11h3.5l4 11h-3.2zm-3-12.4c0.2 0 0.5 0 0.6 0.1 0.2 0.1 0.4 0.2 0.7 0.3 0.2 0.1 0.3 0.2 0.5 0.2 0.2 0 0.2 0.1 0.4 0.1 0.4 0 0.6-0.2 0.7-0.7h1.5c-0.1 0.9-0.4 1.5-0.8 1.9q-0.6 0.6-1.5 0.6c-0.2 0-0.4 0-0.6-0.1-0.2-0.1-0.4-0.2-0.7-0.3-0.2-0.1-0.3-0.2-0.5-0.2-0.1-0.1-0.2-0.1-0.4-0.1-0.4 0-0.6 0.2-0.7 0.7h-1.5c0.2-1.6 1-2.5 2.3-2.5zm2.2 10.1l-1.2-3.5-1.2 3.5zm8 3.5c-0.9-0.5-1.5-1.2-2-2-0.5-0.8-0.8-1.8-0.8-2.9 0-1.1 0.3-2 0.8-2.9 0.5-0.9 1.2-1.5 2-2 0.9-0.5 1.8-0.7 2.8-0.7 1 0 2 0.2 2.8 0.7 0.8 0.5 1.5 1.1 2 2 0.5 0.9 0.7 1.8 0.7 2.9 0 1.1-0.2 2-0.7 2.9-0.5 0.9-1.2 1.5-2 2-0.9 0.5-1.8 0.7-2.8 0.7-1 0-1.9-0.2-2.8-0.7zm4.7-2.9c0.5-0.5 0.7-1.2 0.7-2 0-0.9-0.2-1.6-0.7-2.1-0.5-0.5-1.1-0.8-1.8-0.8-0.8 0-1.4 0.3-1.9 0.8-0.4 0.5-0.7 1.2-0.7 2.1 0 0.9 0.2 1.5 0.7 2 0.4 0.5 1.1 0.8 1.9 0.8 0.7 0 1.3-0.3 1.8-0.8zm15.4-6.8c0.9 0.5 1.5 1.1 2 1.9 0.5 0.8 0.7 1.8 0.7 2.8 0 1.1-0.2 2-0.7 2.8-0.5 0.8-1.1 1.5-2 2-0.9 0.5-1.9 0.7-3 0.7h-4.3v-11h4.3c1.2 0.2 2.2 0.4 3 0.8zm-1.1 6.9c0.5-0.5 0.8-1.2 0.8-2.1 0-0.9-0.3-1.6-0.8-2.1-0.5-0.5-1.2-0.7-2.1-0.7h-1.1v5.6h1.1c0.9 0 1.6-0.2 2.1-0.7zm8.3-3.3h3.5v2.3h-3.5v2h4v2.4h-7v-11h7v2.4h-4zm15.3 4.9h-3.9l-0.6 1.8h-3.2l4-11h3.5l4 11h-3.2zm-0.7-2.3l-1.2-3.5-1.2 3.5zm13.8-6.8v2.4h-2.9v8.5h-3v-8.5h-2.9v-2.4zm4.2 0v11h-3v-11zm12.4 0l-3.8 11h-3.9l-3.8-11h3.3l2.5 7.9 2.5-7.9zm3.4 10.3c-0.9-0.5-1.5-1.2-2-2-0.5-0.8-0.8-1.8-0.8-2.9 0-1.1 0.3-2 0.8-2.9 0.5-0.9 1.2-1.5 2-2 0.9-0.5 1.8-0.7 2.8-0.7 1 0 2 0.2 2.8 0.7 0.8 0.5 1.5 1.1 2 2 0.5 0.9 0.7 1.8 0.7 2.9 0 1.1-0.2 2-0.7 2.9-0.5 0.9-1.2 1.5-2 2-0.9 0.5-1.8 0.7-2.8 0.7-1 0-2-0.2-2.8-0.7zm4.6-2.9c0.5-0.5 0.7-1.2 0.7-2 0-0.9-0.2-1.6-0.7-2.1-0.5-0.5-1.1-0.8-1.8-0.8-0.8 0-1.4 0.3-1.9 0.8-0.4 0.5-0.7 1.2-0.7 2.1 0 0.9 0.2 1.5 0.7 2 0.4 0.5 1.1 0.8 1.9 0.8 0.8 0 1.4-0.3 1.8-0.8zm6.2 2.7c-0.8-0.6-1.3-1.5-1.3-2.6h3.3c0 0.4 0.1 0.7 0.3 0.8 0.2 0.2 0.5 0.3 0.8 0.3 0.3 0 0.5-0.1 0.7-0.2q0.3-0.1 0.3-0.6c0-0.3-0.2-0.6-0.5-0.7q-0.4-0.3-1.5-0.6c-0.7-0.2-1.3-0.5-1.7-0.7-0.4-0.2-0.8-0.5-1.2-1-0.3-0.4-0.5-1-0.5-1.7 0-0.7 0.2-1.3 0.5-1.8 0.3-0.5 0.8-0.9 1.5-1.1 0.6-0.3 1.3-0.4 2.1-0.4 1.3 0 2.3 0.3 3.1 0.9 0.8 0.6 1.2 1.4 1.2 2.5h-3.3c0-0.3-0.1-0.6-0.3-0.7-0.2-0.2-0.4-0.2-0.7-0.2-0.2 0-0.4 0.1-0.6 0.2-0.2 0.1-0.2 0.3-0.2 0.6 0 0.2 0.1 0.4 0.2 0.5 0.2 0.2 0.4 0.3 0.6 0.4 0.2 0.1 0.6 0.2 1.1 0.4 0.7 0.2 1.3 0.5 1.7 0.7 0.4 0.2 0.8 0.6 1.2 1 0.3 0.4 0.5 1 0.5 1.6 0 0.7-0.2 1.2-0.5 1.8-0.3 0.5-0.8 0.9-1.4 1.2-0.6 0.3-1.3 0.5-2.2 0.5-1.4-0.2-2.4-0.5-3.2-1.1zm14.6-5.9h3.5v2.3h-3.5v2h4v2.4h-7v-11h7v2.4h-4zm15.9-3.6c0.9 0.5 1.5 1.1 2 1.9 0.5 0.8 0.7 1.8 0.7 2.8 0 1.1-0.2 2-0.7 2.8-0.5 0.8-1.1 1.5-2 2-0.9 0.5-1.9 0.7-3 0.7h-4.3v-11h4.3c1.1 0.2 2.1 0.4 3 0.8zm-1.2 6.9c0.5-0.5 0.8-1.2 0.8-2.1 0-0.9-0.3-1.6-0.8-2.1-0.5-0.5-1.2-0.7-2.1-0.7h-1.1v5.6h1.1c0.9 0 1.6-0.2 2.1-0.7zm8.3-7.5v11h-3v-11zm2.7 10.1c-0.8-0.6-1.3-1.5-1.3-2.6h3.3c0 0.4 0.1 0.7 0.3 0.8 0.2 0.2 0.5 0.3 0.8 0.3 0.3 0 0.5-0.1 0.7-0.2q0.3-0.1 0.3-0.6c0-0.3-0.2-0.6-0.5-0.7q-0.4-0.3-1.5-0.6c-0.7-0.2-1.3-0.5-1.7-0.7-0.4-0.2-0.8-0.5-1.2-1-0.3-0.4-0.5-1-0.5-1.7 0-0.7 0.2-1.3 0.5-1.8 0.3-0.5 0.8-0.9 1.5-1.1 0.6-0.3 1.3-0.4 2.1-0.4 1.3 0 2.3 0.3 3.1 0.9 0.8 0.6 1.2 1.4 1.2 2.5h-3.3c0-0.3-0.1-0.6-0.3-0.7-0.2-0.2-0.4-0.2-0.7-0.2-0.2 0-0.4 0.1-0.6 0.2-0.2 0.1-0.2 0.3-0.2 0.6 0 0.2 0.1 0.4 0.2 0.5 0.2 0.2 0.4 0.3 0.6 0.4 0.2 0.1 0.6 0.2 1.1 0.4 0.7 0.2 1.3 0.5 1.7 0.7 0.4 0.2 0.8 0.6 1.2 1 0.3 0.4 0.5 1 0.5 1.6 0 0.7-0.2 1.2-0.5 1.8-0.3 0.5-0.8 0.9-1.4 1.2-0.6 0.3-1.3 0.5-2.2 0.5-1.3-0.2-2.4-0.5-3.2-1.1zm16.9-10.1v2.4h-2.9v8.5h-3v-8.5h-2.9v-2.4zm6.7 10.9l-2.2-4h-0.3v4h-3v-11h4.8c0.9 0 1.6 0.2 2.2 0.5 0.6 0.3 1.1 0.7 1.4 1.3 0.3 0.5 0.5 1.1 0.5 1.8 0 0.7-0.2 1.4-0.6 2q-0.6 0.9-1.8 1.2l2.5 4.3h-3.5zm-2.5-6.1h1.5q0.6 0 0.9-0.3 0.3-0.3 0.3-0.9c0-0.4-0.1-0.6-0.3-0.8q-0.3-0.3-0.9-0.3h-1.5zm10.3-4.8v11h-3v-11zm10.3 6.2c0.4 0.5 0.6 1.1 0.6 1.7 0 0.9-0.3 1.7-1 2.2-0.6 0.5-1.5 0.8-2.7 0.8h-5.4v-11h5.3c1.1 0 2 0.2 2.6 0.7 0.6 0.5 1 1.2 1 2.1 0 0.6-0.2 1.2-0.5 1.6-0.3 0.4-0.8 0.7-1.3 0.9 0.5 0.2 1 0.6 1.4 1zm-5.5-1.9h1.5q1.2 0 1.2-0.9c0-0.7-0.4-1-1.2-1h-1.5zm2.9 3.2c0-0.3-0.1-0.6-0.3-0.8q-0.3-0.3-0.9-0.3h-1.8v2h1.8c0.8 0.1 1.2-0.3 1.2-0.9zm7.4-7.5v6.4c0 0.6 0.1 1 0.4 1.4 0.3 0.3 0.7 0.5 1.3 0.5 0.6 0 1-0.2 1.3-0.5 0.3-0.3 0.4-0.8 0.4-1.4v-6.4h3v6.4c0 1-0.2 1.9-0.6 2.6-0.4 0.7-1 1.2-1.7 1.6-0.7 0.4-1.5 0.5-2.4 0.5-0.9 0-1.7-0.2-2.4-0.5-0.7-0.4-1.2-0.9-1.6-1.6-0.4-0.7-0.6-1.6-0.6-2.6v-6.4zm11.2 0v11h-3v-11zm8 7.9c0.3-0.2 0.6-0.5 0.8-0.9h3.3q-0.3 1.7-1.5 2.7c-0.8 0.7-1.7 1.1-2.8 1.3v0.6c0.5 0 1 0.2 1.4 0.5 0.4 0.3 0.6 0.8 0.6 1.4 0 0.6-0.2 1.1-0.7 1.4-0.5 0.3-1 0.5-1.6 0.5h-2.5v-1.6h2.2c0.3 0 0.5-0.1 0.5-0.3 0-0.2-0.2-0.3-0.5-0.3h-1.2v-2q-1.3-0.1-2.4-0.9c-0.7-0.5-1.2-1.1-1.6-1.9q-0.6-1.2-0.6-2.7c0-1.1 0.2-2 0.7-2.9 0.5-0.8 1.1-1.5 1.9-2 0.8-0.5 1.8-0.7 2.9-0.7 1.4 0 2.5 0.4 3.5 1.1q1.4 1.1 1.8 3h-3.3c-0.2-0.4-0.5-0.7-0.8-0.9-0.3-0.2-0.8-0.3-1.2-0.3-0.7 0-1.3 0.3-1.7 0.8-0.4 0.5-0.6 1.2-0.6 2 0 0.9 0.2 1.5 0.6 2 0.4 0.5 1 0.8 1.7 0.8 0.3-0.4 0.7-0.5 1.1-0.7zm12.5 1.2h-3.9l-0.6 1.8h-3.2l4-11h3.5l4 11h-3.2zm-3-12.4c0.2 0 0.5 0 0.6 0.1 0.2 0.1 0.4 0.2 0.7 0.3 0.2 0.1 0.3 0.2 0.5 0.2 0.2 0 0.2 0.1 0.4 0.1 0.4 0 0.6-0.2 0.7-0.7h1.5c-0.1 0.9-0.4 1.5-0.8 1.9q-0.6 0.6-1.5 0.6c-0.2 0-0.4 0-0.6-0.1-0.2-0.1-0.4-0.2-0.7-0.3-0.2-0.1-0.3-0.2-0.5-0.2-0.1-0.1-0.2-0.1-0.4-0.1-0.4 0-0.6 0.2-0.7 0.7h-1.5c0.2-1.6 1-2.5 2.3-2.5zm2.2 10.1l-1.2-3.5-1.2 3.5zm8 3.5c-0.9-0.5-1.5-1.2-2-2-0.5-0.8-0.8-1.8-0.8-2.9 0-1.1 0.3-2 0.8-2.9 0.5-0.9 1.2-1.5 2-2 0.9-0.5 1.8-0.7 2.8-0.7 1 0 2 0.2 2.8 0.7 0.8 0.5 1.5 1.1 2 2 0.5 0.9 0.7 1.8 0.7 2.9 0 1.1-0.2 2-0.7 2.9-0.5 0.9-1.2 1.5-2 2-0.9 0.5-1.8 0.7-2.8 0.7-1 0-2-0.2-2.8-0.7zm4.7-2.9c0.5-0.5 0.7-1.2 0.7-2 0-0.9-0.2-1.6-0.7-2.1-0.5-0.5-1.1-0.8-1.8-0.8-0.8 0-1.4 0.3-1.9 0.8-0.4 0.5-0.7 1.2-0.7 2.1 0 0.9 0.2 1.5 0.7 2 0.4 0.5 1.1 0.8 1.9 0.8 0.7 0 1.3-0.3 1.8-0.8zm-417.8-61.9l43.2-118.5h39.3l9.6 26.4-24.7 24.7-4.7-14.2-9.3 28.2z"/>
</svg>